HIERARCHY
ROOT Hips
{
	OFFSET -14.64140 90.27770 -84.91600
	CHANNELS 6 Xposition Yposition Zposition Zrotation Xrotation Yrotation
	JOINT Spine
	{
		OFFSET 0.00000 13.20850 -1.60436
		CHANNELS 3 Zrotation Xrotation Yrotation
		JOINT Spine1
		{
			OFFSET 0.00000 8.61716 0.00000
			CHANNELS 3 Zrotation Xrotation Yrotation
			JOINT Spine2
			{
				OFFSET 0.00000 8.61717 0.00000
				CHANNELS 3 Zrotation Xrotation Yrotation
				JOINT Spine3
				{
					OFFSET 0.00000 8.61717 0.00000
					CHANNELS 3 Zrotation Xrotation Yrotation
					JOINT Neck
					{
						OFFSET 0.00000 11.07920 1.10792
						CHANNELS 3 Zrotation Xrotation Yrotation
						JOINT Neck1
						{
							OFFSET 0.00000 7.08032 0.00000
							CHANNELS 3 Zrotation Xrotation Yrotation
							JOINT Head
							{
								OFFSET 0.00000 7.08031 0.00000
								CHANNELS 3 Zrotation Xrotation Yrotation
								End site
								{
									OFFSET 0.00000 0.00000 0.00000
								}
							}
						}
					}
					JOINT RightShoulder
					{
						OFFSET -0.01000 7.91373 5.19711
						CHANNELS 3 Zrotation Xrotation Yrotation
						JOINT RightArm
						{
							OFFSET -18.41580 0.00000 0.00000
							CHANNELS 3 Zrotation Xrotation Yrotation
							JOINT RightForeArm
							{
								OFFSET -29.11090 0.00000 0.00000
								CHANNELS 3 Zrotation Xrotation Yrotation
								JOINT RightHand
								{
									OFFSET -24.65040 0.00000 0.00000
									CHANNELS 3 Zrotation Xrotation Yrotation
									JOINT RightHandThumb1
									{
										OFFSET -5.35114 -0.85590 3.97906
										CHANNELS 3 Zrotation Xrotation Yrotation
										JOINT RightHandThumb2
										{
											OFFSET -4.52789 0.00000 0.00000
											CHANNELS 3 Zrotation Xrotation Yrotation
											JOINT RightHandThumb3
											{
												OFFSET -2.46976 0.00000 0.00000
												CHANNELS 3 Zrotation Xrotation Yrotation
												End site
												{
													OFFSET 0.00000 0.00000 0.00000
												}
											}
										}
									}
									JOINT RightHandIndex1
									{
										OFFSET -14.26970 0.00000 2.88139
										CHANNELS 3 Zrotation Xrotation Yrotation
										JOINT RightHandIndex2
										{
											OFFSET -5.48836 0.00000 0.00000
											CHANNELS 3 Zrotation Xrotation Yrotation
											JOINT RightHandIndex3
											{
												OFFSET -3.01859 0.00000 0.00000
												CHANNELS 3 Zrotation Xrotation Yrotation
												End site
												{
													OFFSET 0.00000 0.00000 0.00000
												}
											}
										}
									}
									JOINT RightHandMiddle1
									{
										OFFSET -14.26970 0.00000 -0.09147
										CHANNELS 3 Zrotation Xrotation Yrotation
										JOINT RightHandMiddle2
										{
											OFFSET -6.17441 0.00000 0.00000
											CHANNELS 3 Zrotation Xrotation Yrotation
											JOINT RightHandMiddle3
											{
												OFFSET -3.56743 0.00000 0.00000
												CHANNELS 3 Zrotation Xrotation Yrotation
												End site
												{
													OFFSET 0.00000 0.00000 0.00000
												}
											}
										}
									}
									JOINT RightHandRing1
									{
										OFFSET -12.69180 0.00000 -3.06433
										CHANNELS 3 Zrotation Xrotation Yrotation
										JOINT RightHandRing2
										{
											OFFSET -5.62556 0.00000 0.00000
											CHANNELS 3 Zrotation Xrotation Yrotation
											JOINT RightHandRing3
											{
												OFFSET -3.56744 0.00000 0.00000
												CHANNELS 3 Zrotation Xrotation Yrotation
												End site
												{
													OFFSET 0.00000 0.00000 0.00000
												}
											}
										}
									}
									JOINT RightHandPinky1
									{
										OFFSET -11.11390 0.00000 -6.03719
										CHANNELS 3 Zrotation Xrotation Yrotation
										JOINT RightHandPinky2
										{
											OFFSET -4.52789 0.00000 0.00000
											CHANNELS 3 Zrotation Xrotation Yrotation
											JOINT RightHandPinky3
											{
												OFFSET -2.46976 0.00000 0.00000
												CHANNELS 3 Zrotation Xrotation Yrotation
												End site
												{
													OFFSET 0.00000 0.00000 0.00000
												}
											}
										}
									}
								}
							}
						}
					}
					JOINT LeftShoulder
					{
						OFFSET 0.01000 7.91373 5.19711
						CHANNELS 3 Zrotation Xrotation Yrotation
						JOINT LeftArm
						{
							OFFSET 18.41580 0.00000 0.00000
							CHANNELS 3 Zrotation Xrotation Yrotation
							JOINT LeftForeArm
							{
								OFFSET 29.11090 0.00000 0.00000
								CHANNELS 3 Zrotation Xrotation Yrotation
								JOINT LeftHand
								{
									OFFSET 24.65040 0.00000 0.00000
									CHANNELS 3 Zrotation Xrotation Yrotation
									JOINT LeftHandThumb1
									{
										OFFSET 5.35114 -0.85590 3.97906
										CHANNELS 3 Zrotation Xrotation Yrotation
										JOINT LeftHandThumb2
										{
											OFFSET 4.52789 0.00000 0.00000
											CHANNELS 3 Zrotation Xrotation Yrotation
											JOINT LeftHandThumb3
											{
												OFFSET 2.46977 0.00000 0.00000
												CHANNELS 3 Zrotation Xrotation Yrotation
												End site
												{
													OFFSET 0.00000 0.00000 0.00000
												}
											}
										}
									}
									JOINT LeftHandIndex1
									{
										OFFSET 14.26970 0.00000 2.88139
										CHANNELS 3 Zrotation Xrotation Yrotation
										JOINT LeftHandIndex2
										{
											OFFSET 5.48836 0.00000 0.00000
											CHANNELS 3 Zrotation Xrotation Yrotation
											JOINT LeftHandIndex3
											{
												OFFSET 3.01859 0.00000 0.00000
												CHANNELS 3 Zrotation Xrotation Yrotation
												End site
												{
													OFFSET 0.00000 0.00000 0.00000
												}
											}
										}
									}
									JOINT LeftHandMiddle1
									{
										OFFSET 14.26970 0.00000 -0.09147
										CHANNELS 3 Zrotation Xrotation Yrotation
										JOINT LeftHandMiddle2
										{
											OFFSET 6.17440 0.00000 0.00000
											CHANNELS 3 Zrotation Xrotation Yrotation
											JOINT LeftHandMiddle3
											{
												OFFSET 3.56744 0.00000 0.00000
												CHANNELS 3 Zrotation Xrotation Yrotation
												End site
												{
													OFFSET 0.00000 0.00000 0.00000
												}
											}
										}
									}
									JOINT LeftHandRing1
									{
										OFFSET 12.69180 0.00000 -3.06433
										CHANNELS 3 Zrotation Xrotation Yrotation
										JOINT LeftHandRing2
										{
											OFFSET 5.62556 0.00000 0.00000
											CHANNELS 3 Zrotation Xrotation Yrotation
											JOINT LeftHandRing3
											{
												OFFSET 3.56744 0.00000 0.00000
												CHANNELS 3 Zrotation Xrotation Yrotation
												End site
												{
													OFFSET 0.00000 0.00000 0.00000
												}
											}
										}
									}
									JOINT LeftHandPinky1
									{
										OFFSET 11.11390 0.00000 -6.03719
										CHANNELS 3 Zrotation Xrotation Yrotation
										JOINT LeftHandPinky2
										{
											OFFSET 4.52789 0.00000 0.00000
											CHANNELS 3 Zrotation Xrotation Yrotation
											JOINT LeftHandPinky3
											{
												OFFSET 2.46976 0.00000 0.00000
												CHANNELS 3 Zrotation Xrotation Yrotation
												End site
												{
													OFFSET 0.00000 0.00000 0.00000
												}
											}
										}
									}
								}
							}
						}
					}
					JOINT pCube4
					{
						OFFSET 0.00000 10.91090 1.10792
						CHANNELS 3 Zrotation Xrotation Yrotation
						End site
						{
							OFFSET 0.00000 0.00000 0.00000
						}
					}
				}
			}
		}
	}
	JOINT RightUpLeg
	{
		OFFSET -9.98441 0.00000 0.00000
		CHANNELS 3 Zrotation Xrotation Yrotation
		JOINT RightLeg
		{
			OFFSET 0.00000 -42.11790 0.00000
			CHANNELS 3 Zrotation Xrotation Yrotation
			JOINT RightFoot
			{
				OFFSET 0.00000 -45.00020 -0.00001
				CHANNELS 3 Zrotation Xrotation Yrotation
				JOINT RightForeFoot
				{
					OFFSET 0.00000 -3.74820 0.00000
					CHANNELS 3 Zrotation Xrotation Yrotation
					JOINT RightToeBase
					{
						OFFSET 0.00000 0.06325 14.43120
						CHANNELS 3 Zrotation Xrotation Yrotation
						End site
						{
							OFFSET 0.00000 0.00000 0.00000
						}
					}
				}
			}
		}
	}
	JOINT LeftUpLeg
	{
		OFFSET 9.98441 0.00000 0.00000
		CHANNELS 3 Zrotation Xrotation Yrotation
		JOINT LeftLeg
		{
			OFFSET 0.00000 -42.11800 0.00000
			CHANNELS 3 Zrotation Xrotation Yrotation
			JOINT LeftFoot
			{
				OFFSET 0.00000 -45.00070 0.00000
				CHANNELS 3 Zrotation Xrotation Yrotation
				JOINT LeftForeFoot
				{
					OFFSET 0.00000 -3.74824 0.00000
					CHANNELS 3 Zrotation Xrotation Yrotation
					JOINT LeftToeBase
					{
						OFFSET 0.00000 0.06325 14.43110
						CHANNELS 3 Zrotation Xrotation Yrotation
						End site
						{
							OFFSET 0.00000 0.00000 0.00000
						}
					}
				}
			}
		}
	}
}
MOTION
Frames: 4
Frame Time: 0.050000
-0.007789224718263018 -0.02723555071414338 0.015520500428173595 -0.022043790370442042 0.01958110059818787 0.003405961621505006 5.761053158543437 2.0640441744870652 -2.45769501605398 -0.6703302854100917 3.4554633247381212 0.32516054826001606 -0.48375468872490196 -1.5595787934793919 0.3297250210981462 -0.7061462403488432 -0.5949297812877856 -0.2953242351816705 -0.41996732379888213 15.041059915788402 -0.2913798451738901 0.4866197590369582 0.7972261500253451 0.9696574266962522 0.4677049787269133 -14.944526562776328 0.051221974109137 -12.944762647326446 4.166080255516875 -18.241338491539082 81.05270786307702 -6.646617290101234 22.06783245922694 33.95025621407988 12.322358725357534 95.08929061317266 14.450504623649767 -0.588115093573139 -6.284516562043937 4.480517368611857 -0.16114963827851614 -1.5573186607060694 -0.035652435119948374 0.03746668024219124 -56.252020617076084 0.0170162045694609 -0.03175065001448495 -56.27143775315585 -38.72592939246933 -0.03194808209606612 -0.02160948376855809 -0.020898140313448787 0.016620315464011076 -0.033003635788761934 0.0017980674055407414 0.04768639381222217 0.03766624407530701 -36.71215127954563 -0.034558374391503936 -0.011537630619732307 -0.04769148803211269 0.005328158101814829 0.027385255248076893 -0.03807290210359652 -0.0012775825742631886 -0.005080359218725175 -19.75085618032834 -0.01226088164448142 0.028191970497099733 -0.0003060151624544966 -0.002406760927309731 0.027479030624269967 0.014210968552993567 0.0385592904887779 0.015822963597331884 24.018189683555775 -0.013217727545828095 -0.02237150185098117 28.831262506532653 0.048238223626995085 0.018099790727707666 28.83411737758427 -0.016020883995431504 -0.03607819248115162 14.47624082459665 3.1064333568082008 15.126661221528046 -71.70584747354178 6.6723125513856845 -29.883815763511482 -39.63015900354039 16.767591607538566 -92.26003276582807 -24.615573504257423 -7.825050819548587 4.920846736229072 -0.5205219804966571 0.094697568597023 -8.09322701892313 0.029438246040181967 -0.02965450211103191 44.5524177473719 -0.04544209188375544 -0.04280379424538713 44.580667907659375 12.42810495855656 0.0012227430689219503 0.015395036924329072 -0.021564407019410866 0.021788488590631254 0.020341325476291205 0.0191988185724316 0.02224690983194432 0.01456778569440896 11.11351240893939 0.016081208386378127 0.030617375731292144 -0.023754451759819654 -0.032024651323515466 0.02204536994886616 0.01979099498346241 0.0208359254689298 -0.043363888598490594 4.806358237728358 -0.04408292996352987 -0.008731380318943759 0.04654259617852721 0.00029682901287279894 -0.016313589005071818 -0.0073430755781108865 -0.03543628956845976 -0.007641754729521491 -5.608345689463115 0.002776323082605748 0.026984232662207865 -6.6985182613969085 0.04427057680418875 -0.0052895991952658225 -6.717301044499139 -0.013554960674952897 -0.0280167715326006 -0.011949891027271883 -0.0225430143908415 0.03310436889858088 8.084740205402136 3.464456377978877 -19.19279851580149 0.018108668312590368 10.394205257574061 0.03408653494034003 -5.6587987953306165 -15.619180159257951 3.146637884760647 -0.029672386544655507 -0.00103364775729993 -0.004446570012151581 0.0026251542060266708 4.709688117914267 -0.049757292783614 12.48554733542023 -8.220687408031171 6.881754917426638 -0.027218378273254705 46.33764894741069 0.004149118594196112 -4.303590319652606 -14.7509104729424 -3.8221752265993287 -0.039082197756638466 0.04536676595336861 0.04985171725639339 0.007656050096724877 -10.719109345082705 0.008787570290950683 
0.04255192227550321 -0.04059395618572105 -0.02478086514919331 -0.013014775581391056 -0.036736039589687235 0.0007472372834911097 5.785518756971398 2.0286146741542863 -2.4169819898164593 -0.657809996047533 3.451897400650093 0.38920823637767354 -0.5056091808365217 -1.5193964848526007 0.38523460856712666 -0.780018888949473 -0.5919258445090877 -0.29609360031724336 -0.40018612120976704 15.107931379567153 -0.255629249323928 0.44608398929594967 0.870075833277459 1.0174761850925476 0.388618407958495 -15.00467798157691 0.0536921711352916 -12.884161147049477 4.119841638060572 -18.112707651071183 81.67558934154746 -5.244210143033109 22.49604338290098 35.626425807102585 12.298187200277427 95.60979846435521 15.158372073871647 -0.5994726887115385 -6.960588495515265 4.541569912119439 -0.09849292822978864 -1.5957689434570577 -0.006997913790520456 -0.010309438495560668 -56.25631334924803 0.033021172142872104 -0.0003832842291636117 -56.28017617511923 -38.73575025688322 0.04943403497780182 0.021635464791704563 0.04619972100600275 -0.008769767456437417 -0.027152534233652943 0.01036374889771084 -0.001928282102852932 -0.03933616452118743 -36.73891075631127 -0.01002159031280673 -0.04059702329939877 -0.03643916598015998 -0.014494776963808704 0.004456387251777879 0.008710635088025383 0.0030353873078393123 -0.021440450229089913 -19.80220837642498 -0.010358046790829654 -0.01773791645921697 -0.03495864449366099 0.018194078689362264 0.0058988265429969254 0.04907207372003777 0.02762007141613759 -0.04705949480242712 24.05028306009322 0.030545464572152785 -0.022863991907626106 28.827352394713984 -0.016102261199286944 -0.026333531548930585 28.86458510846284 -0.022670040491792946 0.005808839453081061 14.552534283139344 3.1347516755685447 15.10069306025297 -72.01722726743041 7.688283609879913 -30.183334787773585 -40.40379563833631 16.677435730920653 -92.13932191101392 -25.80109728394708 -8.889152544417724 6.019824551778262 -0.47448702776937085 0.10617509337155864 -8.08839513314404 0.049346986775342806 -0.007923720475136231 44.6088334081714 0.026368951008641357 -0.011054154499518989 44.578470544732994 12.490210117895169 0.031093542342395485 0.016383926985566212 0.04802753228850254 -0.02428290810679611 0.00546171263984345 0.046128528936292226 -0.022402394406332408 -0.03510398916067092 11.058474286949735 0.046048339240915274 -0.04714590938261643 0.00942894271257124 0.023482492816608806 -0.03427809438182146 0.04556965763684762 0.04683322820798543 0.016908499242887492 4.748653895485314 -0.039552955033032904 0.013657741604308582 -0.02934527653914634 0.0031593028753940473 0.018324414135365407 0.017672148862328266 -0.04683120435652745 0.03168731585210557 -5.619360626813749 0.03495971286554326 0.03246636888702944 -6.757949361161866 0.04548250578954535 -0.0019851596484347124 -6.738575018988779 -0.003017475060313509 -0.048922668924575044 0.04604586100869674 -0.020060115849838536 0.002780697809443322 8.053809441925901 3.529232196838945 -19.24225967225394 0.006141339365148144 10.402287457701046 0.04161935209473675 -5.622091908071136 -15.655357164445594 3.2249685029178017 0.021157392541175376 0.004620011470084346 -0.018058448883463366 0.009623351355731887 4.669342376355949 -0.038043061427729806 12.427965847634413 -8.248361590081613 6.896992268966359 -0.014663166137879706 46.35211052869132 0.04621749968305282 -4.333367100625933 -14.783076144504717 -3.81115371375428 0.009321537918397535 0.036116320181832424 0.011093798136481469 -0.03873795357896724 -10.793697037311755 -0.03162770103933809 
0.014656244813042396 0.0010611853776285385 -0.04330373213919731 0.04656000230787867 0.027110317069520114 -0.03440909822952808 5.876551798894248 1.9786082867980574 -2.452308375168981 -0.6623233199284566 3.4451176335346236 0.3877460046634589 -0.5049873592768981 -1.556052154437359 0.35072964223251624 -0.6833051533448744 -0.4994989401670499 -0.23895092821732217 -0.4062776083695489 15.00592989173302 -0.2801491351320968 0.4507146905026232 0.8308309162153567 0.9641771408803251 0.43635992577084814 -15.029839747858535 0.06830834099075357 -12.81508238503647 4.181845264822053 -18.03712022153383 82.03346630487256 -3.1103692690998685 22.350352089555596 36.6877223654821 12.137412290123551 95.7243934749402 15.708858839998403 -0.5920085351062455 -7.527895199575744 4.499596333136686 -0.08973124884259599 -1.6346183445718765 0.026706351847885695 -0.001416226617997645 -56.25984378726613 0.032364797570643436 -0.033823193831057016 -56.227281264352364 -38.72187809941415 0.037502883384690315 0.04662678317701847 0.03082397461113584 -0.02214861075963742 0.03043195353861355 -0.0013576999951146992 -0.025727744341817307 0.03867221314534585 -36.67741908756951 0.043258817459772635 -0.00014216793293097678 -0.02913133205092798 -0.014374610334426658 0.007220041273609381 0.0043461837448181264 0.029685889494986125 -0.02510079683221786 -19.71150568121247 -0.001660633367464471 0.014018400387771125 0.003482761637837284 0.0035286854701840962 0.0025229988011059015 -0.03343011500100139 0.0483800060489302 -0.0015073799897899298 24.075788833523063 -0.029870206790866567 -0.028368640348986583 28.821217582954603 -0.006601911230893932 0.013570068050031865 28.845539388761992 0.044495413486992506 0.02321525371659995 14.455022539226425 3.1267439548482345 15.011501288309798 -72.1841575625867 9.319300545528069 -30.300724273383633 -40.584265926782514 16.409450642158124 -91.54854537257673 -26.757255337670216 -9.80573532688255 7.005871316687264 -0.452162316966945 0.10221131008665904 -8.118910320561483 0.021035805638979062 0.017690462809512232 44.58415343095108 0.020658086860536072 0.0340256037496218 44.57382959315459 12.494300171259384 0.03436931102757314 0.03744597287879822 -0.021381477423694818 0.035114779917008565 0.02004720601595016 0.019536423079792736 -0.015749039146937403 -0.04002528271521363 11.074460864409627 0.044389390927382304 0.0001765930035803226 0.021188071854252935 0.0026421793818563973 -0.02446437364560356 0.026019340090990634 -0.043652071523423 -0.00040288506933047204 4.801659367573805 0.018760341865462014 0.007020307847054733 0.006588187577773335 -0.030932193045820813 0.0075256386222507105 0.032506986435018925 -0.037493344731394755 0.02072994437919739 -5.5913167020098635 0.02377221032454945 -0.04318831945442901 -6.732764946081524 -0.0407416522794187 -0.014984168475104944 -6.748889671622792 0.04882221586770425 -0.042728836059434894 -0.04211653582914714 -0.03730332279659214 -0.0009106162549043452 8.089822707862028 3.4758611457475106 -19.26603109708157 0.01718923434075371 10.358187219332622 0.048825771861451886 -5.644789530617857 -15.63051221424231 3.2020543842569653 0.0013132458360694843 -0.022586207278566427 -0.014526002901528315 -0.04953174354063127 4.715753467362108 0.0028925996196683037 12.424238702277307 -8.260747331409588 6.8389434609310555 0.0062968087063955845 46.37813675615784 -0.03193519467373942 -4.303940312300112 -14.746443657257736 -3.8141341095521635 -0.030761693419964042 0.04062933888924071 0.012547251799954279 0.02789260372794887 -10.771435144165338 0.006175660693290451 
-0.031882229371873815 -0.017987857018893796 0.03550677800290432 -0.006518826883181408 -0.008489839031045504 -0.02788024538489524 5.966653365250012 1.946590155801558 -2.4428756302485644 -0.6164183790246296 3.416720948458057 0.36627309799673824 -0.4289248183570837 -1.501305156364963 0.28193275259390027 -0.7036433996699853 -0.48878904975636495 -0.2777783066760742 -0.4102088009803412 14.881334802324716 -0.2745216549954534 0.4138876249305401 0.8435604126634515 0.8518064329344167 0.4165213188492338 -15.102065934039292 0.04923609474408794 -12.682743928738741 4.164082825101745 -17.919224277099733 82.34749247723745 -1.4251502844301194 22.17002310023583 37.47032780165736 11.852819710208866 95.7380942705772 16.347911386690885 -0.6157938643080331 -8.011190667269636 4.512087242945997 -0.14026504737035703 -1.6162992633987792 -0.0295300742486509 0.003269314212672792 -56.204235450619066 0.025890756985105685 0.036722990327587975 -56.197640709282446 -38.72859609994661 -0.008563037613758819 -0.012348184342259967 0.01184873151485955 -0.004032183368589031 -0.02655019134873478 -0.02050210905408341 -0.031163920316350933 0.03945087316557735 -36.705137312781474 -0.0062155261262655075 -0.03297728355076439 -0.040899590012887226 -0.01829435926150397 0.0028583471930881147 -0.036894823940411624 0.007570050345756224 -0.01102771825124641 -19.751258614564986 0.01874538042092732 0.03174349331061738 0.030554894190532964 0.014484726826559399 -0.014266882026901267 0.014691781102776556 0.00837153535126747 0.03672767956326467 24.038742401654208 0.04825802002510963 -0.015229064653972401 28.907441496461505 0.03807168124150739 0.011199781601674185 28.867451676938817 -0.009880821445659337 0.0029387025494614204 14.416392517563658 3.1283607271432317 14.886525210437071 -72.29594881240716 10.490941814103179 -30.570315151975684 -41.4793275291042 16.134223315040153 -91.48126102768617 -27.60008228106187 -10.416767799281399 7.716436936604417 -0.4366058784264937 0.039464204465765436 -8.138621455499536 -0.013306108443815304 0.03675311082366123 44.58300450291549 -0.00737057224033969 0.020756175249878748 44.567712706747535 12.43714604636424 0.028595425624964248 -0.03504281586317898 0.030754513310908664 0.0032811897289480568 -0.039475895795961946 -0.03791147670311418 -0.025278794351841355 -0.045831115759924934 11.13428497724839 -0.023617011494226358 0.01500680732902861 -0.03752518483317402 0.03034023812892449 -0.02371580812901868 -0.01876215496288635 -0.02599175170904021 0.009115625545111144 4.776891683633531 0.02506514077788396 0.018572744093228233 0.014058943418829755 0.03093787771765845 0.009014719600985778 -0.003442036152928969 0.03906692119886469 -0.020917430314405547 -5.638324484741783 -0.0042840560405467635 0.015915751612182706 -6.6790276979321925 -2.881921820950079e-06 -0.0442349039009965 -6.725475226369995 -0.024722464429842855 -0.0041552475945616126 -0.004073395627834217 -0.019324333472549665 0.027915416862368665 8.062892618695928 3.52347872720072 -19.203413513455633 0.003970485047357556 10.39916716686096 0.034010041068482814 -5.6187026200969665 -15.66218197526409 3.1977157760005195 -0.0005063757352142455 0.015776236448316692 0.00843000311709419 -0.02071755529155371 4.66568625016342 -0.005319105670300565 12.434051770475167 -8.213537830695703 6.87938968353417 0.01670314086572164 46.40641362167283 -0.029838418663531964 -4.305437066931669 -14.701884765274272 -3.8069905586096335 -0.00286127499049715 0.00790483507089761 -0.04185711071074486 -0.03776404110330727 -10.733348484629628 -0.0034379684893137475 
